<svg width="1500" height="500" viewBox="0 0 1500 500" fill="none" xmlns="http://www.w3.org/2000/svg">
<rect width="1500" height="500" fill="#267AED"/>
<path fill-rule="evenodd" clip-rule="evenodd" d="M727.594 175C712.3 175 700 187.831 700 203.55C700 213.106 704.55 221.594 711.544 226.775C707.94 229.476 705.018 232.983 703.013 237.016C701.009 241.049 699.977 245.496 700 250C700 259.562 704.55 268.044 711.544 273.225C707.94 275.926 705.018 279.433 703.013 283.466C701.009 287.499 699.977 291.946 700 296.45C700 312.169 712.3 325 727.594 325C742.882 325 755.188 312.169 755.188 296.45V272.312C760.021 276.342 766.114 278.552 772.407 278.556C787.7 278.55 800 265.719 800 250C800 240.438 795.457 231.956 788.457 226.775C792.061 224.074 794.983 220.567 796.988 216.534C798.992 212.501 800.024 208.054 800 203.55C800 187.831 787.7 175 772.407 175H727.594ZM710.369 203.55C710.369 193.606 718.132 185.644 727.594 185.644H744.813V221.456H727.594C718.132 221.456 710.369 213.487 710.369 203.55ZM772.407 221.45H755.188V185.637H772.407C781.875 185.637 789.632 193.606 789.632 203.55C789.632 213.487 781.875 221.45 772.407 221.45ZM710.375 250C710.375 240.062 718.138 232.094 727.6 232.094H744.819V267.906H727.594C718.125 267.906 710.369 259.938 710.369 250H710.375ZM755.188 250C755.188 240.062 762.95 232.094 772.413 232.094C781.882 232.094 789.638 240.056 789.638 250C789.638 259.938 781.882 267.906 772.413 267.906C762.95 267.906 755.194 259.944 755.194 250H755.188ZM710.375 296.45C710.375 286.512 718.138 278.55 727.6 278.55H744.819V296.45C744.819 306.394 737.069 314.356 727.6 314.356C718.138 314.356 710.375 306.394 710.375 296.45Z" fill="black"/>
</svg>
